<?xml version="1.0" encoding="UTF-8" standalone="no"?>
<!DOCTYPE svg PUBLIC "-//W3C//DTD SVG 1.1//EN" "http://www.w3.org/Graphics/SVG/1.1/DTD/svg11.dtd">
<svg width="100%" height="100%" viewBox="0 0 40 40" version="1.1" xmlns="http://www.w3.org/2000/svg" xmlns:xlink="http://www.w3.org/1999/xlink" xml:space="preserve" xmlns:serif="http://www.serif.com/" style="fill-rule:evenodd;clip-rule:evenodd;stroke-linejoin:round;stroke-miterlimit:2;">
    <g transform="matrix(1,0,0,1,11.7871,9.52635)">
        <rect x="0" y="0" width="16.426" height="20.947" style="fill:rgb(240,153,14);fill-opacity:0;"/>
        <g transform="matrix(1.90998,0,0,1.90998,-7.47357,-9.52635)">
            <path d="M11.807,11.777L4.395,11.777C4.043,11.777 3.779,12.041 3.779,12.373C3.779,12.715 4.043,12.979 4.395,12.979L11.807,12.979C12.148,12.979 12.402,12.715 12.402,12.373C12.402,12.041 12.148,11.777 11.807,11.777ZM11.807,15.185L4.395,15.185C4.043,15.185 3.779,15.459 3.779,15.801C3.779,16.133 4.043,16.387 4.395,16.387L11.807,16.387C12.148,16.387 12.402,16.133 12.402,15.801C12.402,15.459 12.148,15.185 11.807,15.185ZM3.027,20.938L13.398,20.938C15.42,20.938 16.426,19.912 16.426,17.881L16.426,9.014C16.426,7.754 16.279,7.207 15.498,6.406L10.117,0.928C9.375,0.166 8.76,0 7.666,0L3.027,0C1.016,0 0,1.035 0,3.066L0,17.881C0,19.922 1.006,20.938 3.027,20.938ZM3.096,19.365C2.09,19.365 1.572,18.828 1.572,17.852L1.572,3.096C1.572,2.129 2.09,1.572 3.105,1.572L7.451,1.572L7.451,7.246C7.451,8.477 8.066,9.082 9.287,9.082L14.854,9.082L14.854,17.852C14.854,18.828 14.336,19.365 13.32,19.365L3.096,19.365ZM9.463,7.607C9.072,7.607 8.926,7.451 8.926,7.061L8.926,1.875L14.551,7.607L9.463,7.607Z" style="fill:rgb(240,153,14);fill-opacity:0.85;fill-rule:nonzero;"/>
        </g>
    </g>
</svg>
