<?xml version="1.0" encoding="UTF-8"?>
<!DOCTYPE svg
PUBLIC "-//W3C//DTD SVG 1.1//EN"
       "http://www.w3.org/Graphics/SVG/1.1/DTD/svg11.dtd">
<svg version="1.1" xmlns="http://www.w3.org/2000/svg" xmlns:xlink="http://www.w3.org/1999/xlink" width="11.7812" height="13.3828">
 <g>
  <rect height="13.3828" opacity="0" width="11.7812" x="0" y="0"/>
  <path d="M5.6875 13.3594C5.90625 13.3594 6.14844 13.2734 6.35938 13.0547L10.8906 8.21875C11.2344 7.85156 11.375 7.63281 11.375 7.30469C11.375 6.84375 11 6.5 10.5547 6.5L8.17188 6.5L8.17188 1.47656C8.17188 0.546875 7.64062 0 6.73438 0L4.64844 0C3.73438 0 3.21094 0.546875 3.21094 1.47656L3.21094 6.5L0.773438 6.5C0.328125 6.5 0 6.84375 0 7.28906C0 7.61719 0.132812 7.88281 0.4375 8.21875L5.02344 13.0547C5.22656 13.2734 5.47656 13.3594 5.6875 13.3594Z" fill="#ffffff"/>
 </g>
</svg>
